<?xml version="1.0" encoding="UTF-8" standalone="no"?>
<svg
   width="253"
   height="251"
   viewBox="0 0 253 251"
   fill="none"
   version="1.1"
   id="svg26"
   sodipodi:docname="LTlogo.svg"
   inkscape:version="1.3.2 (091e20e, 2023-11-25, custom)"
   xmlns:inkscape="http://www.inkscape.org/namespaces/inkscape"
   xmlns:sodipodi="http://sodipodi.sourceforge.net/DTD/sodipodi-0.dtd"
   xmlns="http://www.w3.org/2000/svg"
   xmlns:svg="http://www.w3.org/2000/svg">
  <sodipodi:namedview
     id="namedview26"
     pagecolor="#505050"
     bordercolor="#ffffff"
     borderopacity="1"
     inkscape:showpageshadow="0"
     inkscape:pageopacity="0"
     inkscape:pagecheckerboard="1"
     inkscape:deskcolor="#d1d1d1"
     showgrid="false"
     inkscape:zoom="7.0946822"
     inkscape:cx="120.72422"
     inkscape:cy="126.2213"
     inkscape:window-width="3840"
     inkscape:window-height="2054"
     inkscape:window-x="-11"
     inkscape:window-y="-11"
     inkscape:window-maximized="1"
     inkscape:current-layer="svg26" />
  <g
     id="g26"
     transform="translate(-4,-4)">
    <path
       d="m 204.425,186.209 c -3.883,3.882 -10.17,3.908 -14.084,0.057 l -50.609,-49.793 c -3.985,-3.92 -3.982,-10.346 0.006,-14.263 l 22.066,-21.671 63.224,-62.7526 c 3.859,-3.8304 10.072,-3.8752 13.986,-0.1009 l 14.896,14.3639 c 4.048,3.9033 4.082,10.3757 0.077,14.3221 l -56.206,55.3725 c -3.955,3.897 -3.979,10.269 -0.053,14.195 l 21.413,21.412 c 3.905,3.906 3.905,10.237 0,14.142 z"
       fill="url(#paint0_linear_4_279)"
       id="path8"
       style="fill:url(#paint0_linear_4_279)" />
    <path
       d="M 36.331,220.878 C 32.4425,224.71 26.2,224.715 22.3054,220.89 L 7.27978,206.132 C 3.28322,202.207 3.29012,195.765 7.29508,191.848 L 63.9851,136.409 c 3.9798,-3.892 4.0154,-10.285 0.0793,-14.221 L 42.7424,100.866 C 38.8123,96.9362 38.841,90.5553 42.8064,86.6608 L 57.9179,71.8192 c 3.8926,-3.8231 10.1312,-3.8204 14.0204,0.0061 L 122.611,121.68 c 3.984,3.921 3.982,10.346 -0.007,14.263 l -22.065,21.672 z"
       fill="url(#paint1_linear_4_279)"
       id="path9"
       style="fill:url(#paint1_linear_4_279)" />
    <path
       d="m 208.645,251.759 c -3.905,3.835 -10.167,3.818 -14.052,-0.037 L 137.98,195.528 c -3.909,-3.88 -10.22,-3.868 -14.115,0.027 l -21.555,21.554 c -3.8807,3.881 -10.1633,3.909 -14.0785,0.064 l -15.025,-14.757 c -3.9767,-3.905 -3.9925,-10.309 -0.0353,-14.234 l 50.7308,-50.321 c 3.885,-3.854 10.145,-3.869 14.049,-0.035 l 22.282,21.884 63.503,63.032 c 3.955,3.926 3.938,10.327 -0.038,14.232 z"
       fill="url(#paint2_linear_4_279)"
       id="path10"
       style="fill:url(#paint2_linear_4_279)" />
    <path
       d="M 101.586,98.444 38.0715,35.8708 C 34.1165,31.9743 34.0927,25.6019 38.0186,21.6761 L 52.6761,7.0185 C 56.5608,3.13385 62.8518,3.11037 66.7653,6.96593 L 123.315,62.678 c 3.914,3.8555 10.205,3.832 14.089,-0.0526 l 21.582,-21.5813 c 3.88,-3.8804 10.162,-3.9087 14.078,-0.0634 l 14.995,14.7277 c 3.988,3.9169 3.991,10.3424 0.006,14.2628 l -50.673,49.8558 c -3.889,3.826 -10.127,3.83 -14.019,0.008 z"
       fill="url(#paint3_linear_4_279)"
       id="path11"
       style="fill:url(#paint3_linear_4_279)" />
  </g>
  <defs
     id="defs26">
    <linearGradient
       id="paint0_linear_4_279"
       x1="261.298"
       y1="112.037"
       x2="261.298"
       y2="-50.652302"
       gradientUnits="userSpaceOnUse">
      <stop
         stop-color="#40AB3D"
         id="stop11" />
      <stop
         offset="0.52"
         stop-color="#3FA93D"
         id="stop12" />
      <stop
         offset="0.72"
         stop-color="#3BA23B"
         id="stop13" />
      <stop
         offset="0.86"
         stop-color="#359639"
         id="stop14" />
      <stop
         offset="0.97"
         stop-color="#2D8535"
         id="stop15" />
      <stop
         offset="1"
         stop-color="#2A8034"
         id="stop16" />
    </linearGradient>
    <linearGradient
       id="paint1_linear_4_279"
       x1="0.212"
       y1="146.52"
       x2="0.212"
       y2="309.194"
       gradientUnits="userSpaceOnUse">
      <stop
         stop-color="#40AB3D"
         id="stop17" />
      <stop
         offset="0.52"
         stop-color="#3FA93D"
         id="stop18" />
      <stop
         offset="0.72"
         stop-color="#3BA23B"
         id="stop19" />
      <stop
         offset="0.86"
         stop-color="#359639"
         id="stop20" />
      <stop
         offset="0.97"
         stop-color="#2D8535"
         id="stop21" />
      <stop
         offset="1"
         stop-color="#2A8034"
         id="stop22" />
    </linearGradient>
    <linearGradient
       id="paint2_linear_4_279"
       x1="65.820999"
       y1="194.79601"
       x2="65.820999"
       y2="322.08701"
       gradientUnits="userSpaceOnUse">
      <stop
         stop-color="#130F40"
         id="stop23" />
      <stop
         offset="1"
         stop-color="#161616"
         id="stop24" />
    </linearGradient>
    <linearGradient
       id="paint3_linear_4_279"
       x1="113.261"
       y1="-0.00583144"
       x2="278.16"
       y2="-0.00583144"
       gradientUnits="userSpaceOnUse">
      <stop
         stop-color="#130F40"
         id="stop25" />
      <stop
         offset="1"
         stop-color="#161616"
         id="stop26" />
    </linearGradient>
  </defs>
</svg>
